# xmcd
#
# Track frame offsets: 
#        150
#        13004
#        27784
#        40645
#        53063
#        63723
#        77143
#        88538
#        100491
#        115750
#        128871
#        140561
#        151576
#        165089
#        176588
#        187075
#
# Disc length: 2674 seconds
#
# Revision: 0
# Processed by: cddbd v1.5.2PL0 Copyright (c) Steve Scherf et al.
# Submitted via: ExactAudioCopy v0.99pb4
#
DISCID=c60a7010
DTITLE=Sonny Boy Williamson - Down And Out Blues [CD1]
DYEAR=2010
DGENRE=Blues
TTITLE0=All My Love In Vain
TTITLE1=The Key (To Your Door)
TTITLE2=Keep It To Yourself
TTITLE3=Dissatisfied
TTITLE4=Fattening Frogs And Snakes
TTITLE5=Wake Up Baby
TTITLE6=Your Funeral And My Trial
TTITLE7=99
TTITLE8=Cross My Heart
TTITLE9=Let Me Explain
TTITLE10=Don't Start Me Talkin'
TTITLE11=I Don't Know
TTITLE12=Your Imagination
TTITLE13=Born Blind
TTITLE14=Let Your Conscience Be Your Guide
TTITLE15=Unseeing Eye
EXTD=
EXTT0=
EXTT1=
EXTT2=
EXTT3=
EXTT4=
EXTT5=
EXTT6=
EXTT7=
EXTT8=
EXTT9=
EXTT10=
EXTT11=
EXTT12=
EXTT13=
EXTT14=
EXTT15=
PLAYORDER=
